<svg xmlns="http://www.w3.org/2000/svg" viewBox="0 0 64 64"><g data-name="14 Email marketing"><path fill="#ffcf4d" d="M60.3779,23.5527,32.459,9.1118a.996.996,0,0,0-.918,0L3.6221,23.5527A2.9876,2.9876,0,0,0,2,26.2173V55a3.0033,3.0033,0,0,0,3,3H59a3.0033,3.0033,0,0,0,3-3V26.2173A2.9876,2.9876,0,0,0,60.3779,23.5527Z"/><path fill="#fff176" d="M61.7627,25.1094A2.926,2.926,0,0,0,60.38,23.5518L32.459,9.1118a.996.996,0,0,0-.918,0L3.6221,23.5508c-.7756.4-2.002,1.7-.9,2.4624l22.34,15.4194a1.0344,1.0344,0,0,0,1.165-.0132l2.87-2.0806a4.9982,4.9982,0,0,1,5.833-.0239l2.9131,2.0742a1,1,0,0,0,1.1875.0488l22.36-15.14A1,1,0,0,0,61.7627,25.1094Z"/><path fill="#eee" d="M52,6H12a1,1,0,0,0-1,1V31.21a.9983.9983,0,0,0,.4326.8232l13.63,9.4a1.0284,1.0284,0,0,0,.5772.1768.9982.9982,0,0,0,.5869-.19l2.8711-2.0806a4.9966,4.9966,0,0,1,5.832-.0239l2.91,2.07a.9986.9986,0,0,0,1.1475.0083l13.58-9.36A1,1,0,0,0,53,31.21V7A1,1,0,0,0,52,6Z"/><path fill="#ff3c38" d="M24,25H20a1,1,0,0,0-1,1v6h6V26A1,1,0,0,0,24,25Z"/><path fill="#3abeff" d="M31,23H27a1,1,0,0,0-1,1v8h6V24A1,1,0,0,0,31,23Z"/><path fill="#46464e" d="M21.999,22a1.0047,1.0047,0,0,1-.2734-1.9619l6.9385-1.9824,6.89-2.9526,6.95-3.9717a1.0005,1.0005,0,0,1,.9922,1.7363l-7,4c-.0332.019-7.1025,3.0508-7.1025,3.0508-.0381.0166-7.1191,2.0425-7.1191,2.0425A.9926.9926,0,0,1,21.999,22Z"/><path fill="#ffcf4d" d="M45,12.0015a2,2,0,0,1-4,0A2,2,0,0,1,45,12.0015Z"/><path fill="#e8b536" d="M61.0762,55.5024,39.0508,39.7959c-.0057-.0041-.0129-.0054-.0187-.0093-.012-.0095-.02-.0227-.0321-.0317l-2.91-2.07-.001,0a6.9975,6.9975,0,0,0-8.166.0356l-2.8471,2.0634c-.01.0067-.0221.0091-.0318.0162L3.1,55.686a1.0141,1.0141,0,0,0-.0752,1.56A2.9871,2.9871,0,0,0,5,58H59a2.9989,2.9989,0,0,0,2.2461-1.0229A1.0161,1.0161,0,0,0,61.0762,55.5024Z"/><path fill="#8bc34a" d="M38,21H34a1,1,0,0,0-1,1V32h6V22A1,1,0,0,0,38,21Z"/><path fill="#ffcf4d" d="M45,16H41a1,1,0,0,0-1,1V32h6V17A1,1,0,0,0,45,16Z"/><path fill="#46464e" d="M47,32H17a1.0006,1.0006,0,0,1,0-2H47A1.0006,1.0006,0,0,1,47,32Z"/><path fill="#ff3c38" d="M24,21a2,2,0,0,1-4,0A2,2,0,0,1,24,21Z"/><path fill="#3abeff" d="M31,19.0015a2,2,0,0,1-4,0A2,2,0,0,1,31,19.0015Z"/><path fill="#8bc34a" d="M38,15.9958a2,2,0,0,1-4,0A2,2,0,0,1,38,15.9958Z"/><path d="M19,26v4H17a1.0006,1.0006,0,0,0,0,2H47a1.0006,1.0006,0,0,0,0-2H46V17a1,1,0,0,0-1-1H41a1,1,0,0,0-1,1V30H39V22a1,1,0,0,0-1-1H34a1,1,0,0,0-1,1v8H32V24a1,1,0,0,0-1-1H27a1,1,0,0,0-1,1v6H25V26a1,1,0,0,0-1-1H20A1,1,0,0,0,19,26Zm23-8h2V30H42Zm-7,5h2v7H35Zm-7,2h2v5H28Zm-7,2h2v3H21Z"/><path d="M62,26.22a3.0315,3.0315,0,0,0-1.62-2.668L53,19.7313V7a1,1,0,0,0-1-1H12a1,1,0,0,0-1,1V19.7313l-7.3779,3.82A3.0409,3.0409,0,0,0,2,26.22V55a3.0324,3.0324,0,0,0,3,3H59a3.0366,3.0366,0,0,0,3-3ZM4,55V26.8953l7.3859,5.0966c.0165.0129.0293.0294.0467.0413L23.8974,40.63,4.0063,55.0293C4.006,55.0192,4,55.01,4,55Zm7-25.7046L4.9464,25.1177,11,21.9834ZM29.0977,39.3394a4.9966,4.9966,0,0,1,5.832-.0244L58.329,56H6.0753ZM40.222,40.6311,60,27.2394V54.7349ZM59.3445,25.2682,53,29.564V21.9834ZM13,8H51V30.6846L38.4287,39.3491l-2.34-1.6646a6.9968,6.9968,0,0,0-8.166.0361l-2.3018,1.668-.7375-.5092L13,30.6753V8Z"/><path d="M43,9a3.0323,3.0323,0,0,0-2.95,3.53l-2.09,1.19c-1.8722-1.5894-5.331-.1946-4.95,2.47l-1.81.78A2.9521,2.9521,0,0,0,29,16a3,3,0,0,0-2.99,2.82l-1.56.44A3.0021,3.0021,0,1,0,22,24a3,3,0,0,0,2.99-2.82l1.56-.44a3.0014,3.0014,0,0,0,5.44-1.93l1.82-.78a3.0118,3.0118,0,0,0,5.14-2.56l2.1-1.2A2.9963,2.9963,0,1,0,43,9ZM22.27,21.96c-1.2205.4063-1.79-1.5918-.5225-1.925A.9982.9982,0,0,1,22.27,21.96Zm6.93-1.98a1.0029,1.0029,0,0,1-.54-1.92C29.9787,17.5831,30.5535,19.7865,29.2,19.98Zm6.41-4.91a.9963.9963,0,0,1,.7744,1.835A.9963.9963,0,0,1,35.61,15.07Zm8.34-2.76c-.4791,1.1963-2.3636.5844-1.8727-.6714A.9963.9963,0,0,1,43.95,12.31Z"/></g></svg>